<svg width="182" height="42" viewBox="0 0 182 42" fill="none" xmlns="http://www.w3.org/2000/svg">
<g clip-path="url(#clip0_84_61)">
<path d="M16.8148 8.0862L10.8067 16.1129L7.55361 8.24382L4.22243 8.30048L1.59766 24.9036L4.85795 24.8482L6.58727 13.9611L9.90924 21.7107L10.2872 21.7043L16.2517 13.8913L14.5444 24.6833L17.781 24.6283L20.4058 8.0251L16.8148 8.0862ZM33.5989 7.80062L23.4873 7.97266L20.8625 24.5758L31.0923 24.4017L31.5825 21.271L24.6132 21.3896L25.2116 17.6655L31.4487 17.5594L31.9641 14.4991L25.6796 14.6061L26.2572 11.048L33.1087 10.9314L33.5989 7.80062ZM47.2636 13.2926C47.4978 11.7747 47.1446 10.456 46.1561 9.31375C45.1916 8.17107 43.9534 7.62441 42.465 7.64975L36.0152 7.7595L33.3905 24.3626L36.6508 24.3072L37.5689 18.5434L40.2858 18.4972L42.6752 24.2047L45.9828 24.1484L43.3737 18.0188C45.4403 17.2503 46.8992 15.4987 47.2636 13.2926ZM41.9733 10.7096C43.3908 10.6855 44.259 11.7115 44.0228 13.1112C43.7868 14.5108 42.6944 15.5939 41.3714 15.6164L38.0166 15.6735L38.7838 10.7639L41.9733 10.7096ZM59.5051 7.35979L52.6558 14.5728L53.7874 7.45707L50.5271 7.51256L47.9024 24.1157L51.1627 24.0602L52.421 16.0434L57.3998 23.9541L60.8254 23.8958L55.5794 15.5639L63.403 7.29346L59.5051 7.35979ZM75.151 7.09354L65.0393 7.26561L62.4145 23.8688L72.6443 23.6947L73.1348 20.5639L66.1654 20.6825L66.7637 16.9585L73.0008 16.8523L73.5161 13.7921L67.2318 13.899L67.8094 10.3409L74.6608 10.2243L75.151 7.09354ZM88.3508 11.6472C88.5395 10.2484 88.2132 9.1185 87.324 8.23474C86.4345 7.35098 85.2691 6.92135 83.828 6.94589L77.5673 7.05242L74.9425 23.6556L81.7702 23.5394C85.3377 23.4787 87.5023 21.5258 87.857 18.7521C88.041 17.0695 87.5233 15.8009 86.3039 14.9701C87.4947 14.1219 88.1615 13.0225 88.3508 11.6472ZM83.5017 10.0029C84.6593 9.98323 85.2638 10.7772 85.092 11.7973C84.9207 12.841 84.0598 13.6363 82.9494 13.6552L79.76 13.7095L80.3359 10.0568L83.5017 10.0029ZM84.662 18.4753C84.4685 19.6141 83.5377 20.4578 82.3092 20.4788L78.6945 20.5402L79.3132 16.6266L82.9751 16.5643C84.18 16.5438 84.8315 17.337 84.662 18.4753ZM107.654 6.54047L97.7779 6.70852L95.1531 23.3117L98.4134 23.2562L99.4154 16.8523L105.842 16.7429L106.356 13.6117L99.9296 13.7211L100.548 9.78384L107.139 9.67166L107.654 6.54047ZM107.404 23.1032L110.665 23.0477L113.289 6.44458L110.029 6.50003L107.404 23.1032ZM115.122 6.41339L114.632 9.54417L119.074 9.46861L116.939 22.941L120.199 22.8855L122.334 9.41313L126.799 9.33713L127.289 6.20635L115.122 6.41339ZM129.745 22.7231L131.389 12.3579L136.856 22.602L139.313 22.5602L141.938 5.95707L138.678 6.01255L137.058 16.3773L131.566 6.13354L129.109 6.17537L126.485 22.7785L129.745 22.7231ZM155.117 5.7328L145.006 5.90487L142.381 22.508L152.611 22.334L153.101 19.2031L146.132 19.3217L146.73 15.5977L152.967 15.4916L153.482 12.4313L147.198 12.5383L147.776 8.98019L154.627 8.86361L155.117 5.7328ZM160.774 22.5262C164.246 22.4671 166.723 20.7928 167.216 17.8275C167.517 16.0246 166.954 14.8988 166.067 14.1332C165.467 13.623 164.871 13.302 164.133 13.0071C163.562 12.7566 163.277 12.6905 162.706 12.4873C160.52 11.7439 159.613 11.2152 159.853 10.052C160.049 9.07886 160.96 8.44831 162.283 8.42582C163.677 8.40208 164.657 9.07141 165.271 10.433L168.104 8.87082C167.214 6.54413 165.206 5.22995 162.489 5.27618C161.025 5.3011 159.732 5.70161 158.587 6.50169C157.466 7.27773 156.777 8.4249 156.542 9.91914C156.307 11.3661 156.586 12.4968 157.379 13.2876C158.172 14.0547 159.365 14.6967 160.909 15.1909C163.213 15.9086 164.12 16.39 163.88 17.6004C163.709 18.6442 162.705 19.3472 160.98 19.3766C159.09 19.4088 157.918 18.6008 157.489 16.9759L154.562 18.5396C155.195 21.0599 157.442 22.5829 160.774 22.5262ZM174.109 22.2993C177.582 22.2402 180.059 20.5659 180.552 17.6006C180.852 15.7977 180.289 14.6719 179.402 13.9063C178.802 13.3961 178.206 13.0751 177.469 12.7801C176.897 12.5297 176.613 12.4635 176.042 12.2603C173.855 11.517 172.948 10.9883 173.188 9.82514C173.384 8.85193 174.295 8.22141 175.618 8.19889C177.012 8.17518 177.993 8.84448 178.607 10.206L181.44 8.64391C180.549 6.3172 178.542 5.00304 175.825 5.04928C174.36 5.0742 173.067 5.47468 171.923 6.27475C170.802 7.0508 170.112 8.19797 169.878 9.69224C169.642 11.1392 169.921 12.2699 170.714 13.0607C171.507 13.8278 172.7 14.4698 174.244 14.9639C176.549 15.6817 177.455 16.163 177.216 17.3735C177.044 18.4173 176.04 19.1203 174.316 19.1497C172.426 19.1818 171.254 18.3739 170.824 16.749L167.897 18.3127C168.531 20.833 170.778 22.356 174.109 22.2993Z" fill="black"/>
<path d="M18.0716 40.5583C18.8352 40.546 19.4833 40.3278 20.0153 39.9037C20.5473 39.4796 20.8726 38.9077 20.9923 38.1974L21.7463 33.7827L21.2066 33.7912L20.4526 38.2059C20.3605 38.7457 20.1039 39.1844 19.6824 39.5405C19.2613 39.8876 18.7146 40.0662 18.0527 40.0766C16.7494 40.0973 16.1248 39.37 16.3086 38.2711L17.0625 33.8564L16.5229 33.8649L15.7689 38.2796C15.6488 38.962 15.8117 39.5164 16.2373 39.9448C16.6624 40.3632 17.2774 40.5705 18.0716 40.5583ZM25.3023 35.5121C24.4776 35.5253 23.8315 35.8474 23.3642 36.4685L23.5016 35.6444L22.9925 35.6524L22.1831 40.3892L22.6922 40.3812L23.1249 37.8706L23.1254 37.8801C23.3372 36.6583 24.1701 35.9834 25.2188 35.9669C26.1861 35.9518 26.6239 36.5025 26.4773 37.3832L25.9708 40.3297L26.49 40.3212L26.9966 37.3752C27.1789 36.229 26.514 35.4932 25.3023 35.5121ZM28.4496 40.2905L28.9465 37.3917L29.6266 33.3751L29.1175 33.3832L28.4272 37.3998L27.9405 40.2985L28.4496 40.2905ZM33.0763 35.3898C32.3228 35.4016 31.665 35.6387 31.1137 36.101C30.5618 36.5535 30.2156 37.1353 30.0965 37.8366C29.9774 38.5658 30.1204 39.1684 30.5471 39.6435C30.9732 40.1186 31.5683 40.3453 32.3422 40.333C33.3196 40.3179 34.2487 39.9061 34.7252 39.2184L34.3236 38.979C33.8862 39.5623 33.2499 39.8655 32.4048 39.8787C31.2338 39.8971 30.5084 39.2095 30.5705 38.1407L35.1626 38.0685C35.1819 38.0208 35.2007 37.9448 35.2196 37.8409C35.3494 37.1679 35.2165 36.5842 34.8108 36.0991C34.4147 35.6141 33.8399 35.3775 33.0763 35.3898ZM30.6433 37.6765C30.7863 37.1358 31.0837 36.6966 31.5154 36.3589C31.9471 36.0217 32.4638 35.8526 33.0442 35.8436C34.1439 35.8262 34.8276 36.477 34.7263 37.6123L30.6433 37.6765ZM41.1124 36.5572C40.7718 35.7596 39.9481 35.2812 38.9808 35.2963C38.2783 35.3076 37.6505 35.5253 37.0987 35.9594C36.5463 36.3834 36.2103 36.9653 36.0815 37.7044C35.9618 38.3958 36.136 38.9979 36.5829 39.5009C37.0299 40.0038 37.6149 40.2499 38.3378 40.2385C39.3357 40.223 40.1136 39.8513 40.6705 39.1339L40.5051 40.1006L41.0142 40.0926L41.8236 35.3558L41.3145 35.3638L41.1124 36.5572ZM40.8904 37.7984C40.7993 38.367 40.5224 38.834 40.0606 39.2099C39.5994 39.5854 39.0628 39.7734 38.4519 39.7833C37.8409 39.7927 37.3588 39.5925 36.9948 39.192C36.6308 38.7915 36.5 38.3023 36.6013 37.7337C36.7026 37.1372 36.9892 36.6602 37.451 36.3032C37.9132 35.9461 38.4391 35.7586 39.0195 35.7492C39.6202 35.7398 40.1024 35.9305 40.476 36.3121C40.8599 36.6937 40.9912 37.1825 40.8904 37.7984ZM44.3299 40.1441C45.399 40.1271 46.1647 39.652 46.2828 38.8945C46.4575 37.8522 45.3832 37.6047 44.5448 37.4007C43.9715 37.2491 43.5286 36.9728 43.6116 36.518C43.7134 35.9589 44.2887 35.6661 44.9098 35.6566C45.48 35.6477 45.9937 35.8852 46.1652 36.3452L46.6092 36.1209C46.3434 35.5301 45.7264 35.19 44.922 35.2028C44.4435 35.2103 44.028 35.3303 43.6859 35.5721C43.354 35.804 43.1559 36.1001 43.0913 36.46C42.8958 37.4739 44.0005 37.7209 44.8294 37.9254C45.4123 38.0765 45.8557 38.3627 45.7727 38.8269C45.6704 39.3578 45.1058 39.6784 44.3625 39.6898C43.6192 39.7016 43.1142 39.3885 42.9523 38.8713L42.4977 39.0957C42.7553 39.8097 43.3626 40.1592 44.3299 40.1441ZM50.5084 35.1149C49.6836 35.1277 49.0376 35.4498 48.5707 36.0713L49.0299 33.3525L48.5208 33.3605L47.3896 39.992L47.8987 39.984L48.3315 37.4734V37.4829C48.5432 36.2607 49.3766 35.5863 50.4254 35.5697C51.3927 35.5541 51.8305 36.1048 51.6834 36.9856L51.1773 39.932L51.6966 39.924L52.2026 36.9776C52.3854 35.8314 51.72 35.0956 50.5084 35.1149ZM54.3938 34.0141C54.6382 34.0103 54.8286 33.8469 54.8652 33.6287C54.9024 33.4299 54.7364 33.2623 54.5226 33.2656C54.2782 33.2698 54.0878 33.4427 54.0608 33.6415C54.0242 33.8592 54.1596 34.0179 54.3938 34.0141ZM53.6459 39.8933L54.4554 35.1565L53.9463 35.1645L53.1368 39.9013L53.6459 39.8933ZM58.3337 34.9912C57.509 35.0044 56.8634 35.326 56.3961 35.9475L56.5336 35.1234L56.0245 35.1315L55.215 39.8683L55.7241 39.8603L56.1568 37.3497V37.3591C56.3686 36.1369 57.202 35.4625 58.2507 35.446C59.218 35.4309 59.6559 35.9815 59.5087 36.8623L59.0027 39.8088L59.522 39.8003L60.028 36.8543C60.2108 35.7081 59.5454 34.9723 58.3337 34.9912ZM66.1006 36.1539C65.76 35.3563 64.9261 34.8873 63.9588 34.9024C63.2664 34.9133 62.6392 35.1409 62.0771 35.5844C61.5151 36.0278 61.1791 36.5997 61.0798 37.31C60.9709 38.0298 61.1348 38.6319 61.5716 39.1259C62.0186 39.6194 62.6239 39.8555 63.3977 39.8433C64.3243 39.8286 65.1317 39.4286 65.6587 38.74L65.5299 39.4791C65.3364 40.6064 64.4933 41.2619 63.1799 41.2827C62.2024 41.2983 61.6047 40.9394 61.3812 40.4137L60.9271 40.6381C61.2555 41.3229 62.068 41.754 63.1676 41.7366C64.7051 41.7125 65.8002 40.8827 66.0491 39.4706L66.822 34.9615L66.3027 34.9695L66.1006 36.1539ZM63.4711 39.3885C62.85 39.3984 62.3571 39.2076 61.9936 38.8165C61.6403 38.4161 61.509 37.9268 61.5899 37.3398C61.6709 36.7622 61.9473 36.2852 62.4193 35.9187C62.8912 35.5523 63.4176 35.3648 63.998 35.3553C64.558 35.3468 65.0294 35.5187 65.4128 35.8715C65.7961 36.2153 65.9672 36.6753 65.9168 37.243L65.8613 37.5462C65.7284 38.0869 65.4413 38.5261 64.9892 38.8638C64.5468 39.2014 64.0412 39.3795 63.4711 39.3885ZM70.8805 33.0077L70.8077 33.4814L73.0375 33.446L71.9893 39.6038L72.5391 39.5953L73.5874 33.4375L75.8274 33.402L75.9104 32.9284L70.8805 33.0077ZM78.9166 34.6668C78.0919 34.6795 77.4458 35.0016 76.9785 35.6231L77.4382 32.9043L76.9291 32.9123L75.7979 39.5438L76.307 39.5358L76.7397 37.0253V37.0347C76.9515 35.8125 77.7844 35.1381 78.8331 35.1216C79.8004 35.1064 80.2383 35.6566 80.0916 36.5379L79.5856 39.4843L80.1049 39.4758L80.6109 36.5294C80.7937 35.3837 80.1283 34.6474 78.9166 34.6668ZM84.6028 34.577C83.8493 34.5888 83.1915 34.8259 82.6402 35.2883C82.0883 35.7412 81.7421 36.323 81.6225 37.0238C81.5039 37.753 81.6469 38.3556 82.0736 38.8307C82.4997 39.3058 83.0948 39.5325 83.8686 39.5207C84.8461 39.5051 85.7752 39.0938 86.2517 38.4057L85.8501 38.1667C85.4128 38.75 84.7764 39.0527 83.9313 39.0659C82.7603 39.0843 82.0349 38.3967 82.097 37.328L86.6891 37.2557C86.7084 37.208 86.7272 37.1325 86.7461 37.0281C86.8759 36.3551 86.743 35.7714 86.3373 35.2868C85.9412 34.8014 85.3664 34.5652 84.6028 34.577ZM82.1698 36.8642C82.3128 36.3235 82.6101 35.8838 83.0419 35.5466C83.4736 35.2089 83.9898 35.0403 84.5702 35.0309C85.6698 35.0139 86.3541 35.6642 86.2528 36.7995L82.1698 36.8642ZM95.6569 35.5933L91.5128 35.6585L92.0183 32.6743L91.4787 32.6828L90.3475 39.3143L90.8871 39.3058L91.4298 36.1322L95.5739 36.067L95.0312 39.2406L95.5708 39.2321L96.702 32.6006L96.1624 32.6091L95.6569 35.5933ZM101.278 36.9218V36.9124C101.066 38.1346 100.233 38.809 99.1844 38.8255C98.2171 38.8406 97.7793 38.29 97.9259 37.4092L98.432 34.4628L97.9127 34.4713L97.4066 37.4172C97.2239 38.5634 97.8893 39.2992 99.1009 39.2803C99.9257 39.2671 100.572 38.9455 101.039 38.324L100.901 39.1481L101.41 39.1401L102.22 34.4032L101.711 34.4113L101.278 36.9218ZM109.248 34.1884C108.546 34.1997 107.839 34.5317 107.372 35.1815C107.197 34.5515 106.652 34.2295 105.929 34.2408C105.206 34.2521 104.62 34.5355 104.172 35.0998L104.301 34.3702L103.792 34.3782L102.983 39.115L103.492 39.107L103.953 36.4448C104.146 35.3081 104.919 34.7102 105.815 34.696C106.619 34.6833 107.036 35.1778 106.878 36.0585L106.373 39.0617L106.882 39.0536L107.371 36.2304C107.606 35.1778 108.299 34.6568 109.155 34.6432C109.979 34.6304 110.416 35.1244 110.269 36.0052L109.764 39.0083L110.273 39.0003L110.788 35.9971C110.89 35.4191 110.78 34.9766 110.479 34.6602C110.177 34.3343 109.768 34.1803 109.248 34.1884ZM116.821 35.3634C116.481 34.5657 115.657 34.0873 114.69 34.1024C113.987 34.1137 113.359 34.3315 112.807 34.7655C112.255 35.1896 111.919 35.7714 111.79 36.5105C111.671 37.2019 111.845 37.804 112.292 38.307C112.739 38.8099 113.324 39.056 114.047 39.0447C115.044 39.0291 115.822 38.6574 116.379 37.94L116.214 38.9063L116.723 38.8983L117.532 34.1614L117.023 34.1695L116.821 35.3634ZM116.599 36.6045C116.508 37.1731 116.231 37.6401 115.769 38.0161C115.308 38.3915 114.772 38.5795 114.161 38.5894C113.55 38.5988 113.068 38.3986 112.704 37.9981C112.34 37.5976 112.209 37.1084 112.31 36.5398C112.411 35.9433 112.698 35.4663 113.16 35.1093C113.622 34.7522 114.148 34.5648 114.728 34.5553C115.329 34.5459 115.811 34.7367 116.185 35.1183C116.569 35.4994 116.7 35.9886 116.599 36.6045ZM121.415 33.9966C120.59 34.0094 119.944 34.3315 119.477 34.953L119.614 34.1289L119.105 34.1369L118.296 38.8737L118.805 38.8657L119.237 36.3551L119.238 36.3646C119.45 35.1423 120.283 34.4679 121.331 34.4514C122.299 34.4363 122.736 34.9865 122.59 35.8677L122.083 38.8137L122.602 38.8057L123.109 35.8592C123.291 34.7135 122.626 33.9773 121.415 33.9966ZM127.99 32.1071L126.859 38.7386L127.399 38.7301L127.831 36.2007L129.573 36.1733C130.316 36.1615 130.923 35.9631 131.405 35.5678C131.897 35.173 132.183 34.6772 132.284 34.0897C132.385 33.5022 132.254 33.0129 131.891 32.6313C131.538 32.2497 131.025 32.0594 130.363 32.0698L127.99 32.1071ZM131.754 34.032C131.681 34.5053 131.454 34.8963 131.062 35.2141C130.671 35.5324 130.195 35.6911 129.625 35.7001L127.914 35.727L128.447 32.5723L130.331 32.5425C131.318 32.5269 131.9 33.1319 131.754 34.032ZM134.67 38.7193C135.393 38.7079 136.05 38.4803 136.643 38.0364C137.236 37.5924 137.592 36.9917 137.721 36.2432C137.84 35.5135 137.676 34.9119 137.229 34.4557C136.783 33.9905 136.199 33.7633 135.486 33.7747C134.753 33.786 134.084 34.0141 133.481 34.4675C132.879 34.9119 132.513 35.5031 132.384 36.2422C132.265 36.9903 132.429 37.5924 132.895 38.0482C133.362 38.5039 133.947 38.7306 134.67 38.7193ZM134.712 38.2649C134.132 38.2744 133.65 38.1025 133.287 37.7398C132.924 37.3771 132.803 36.8874 132.904 36.2814C133.005 35.6751 133.301 35.1886 133.783 34.8122C134.276 34.4363 134.812 34.2483 135.402 34.2294C135.983 34.2205 136.454 34.3924 136.818 34.7551C137.181 35.1178 137.311 35.5976 137.211 36.1945C137.11 36.8104 136.813 37.3157 136.321 37.6916C135.839 38.068 135.303 38.256 134.712 38.2649ZM141.794 34.2422L141.877 33.778L140.35 33.8021L140.58 32.4755L140.043 32.6256L139.841 33.8101L138.721 33.8276L138.638 34.2918L139.758 34.2743L139.233 37.353C139.048 38.3858 139.697 38.7344 141.068 38.5143L141.131 38.0883C140.562 38.1445 140.175 38.1318 139.959 38.0501C139.754 37.9684 139.678 37.7332 139.742 37.345L140.277 34.2658L141.794 34.2422ZM145.039 33.624C144.285 33.6358 143.627 33.8729 143.076 34.3352C142.524 34.7881 142.178 35.3695 142.058 36.0708C141.94 36.8 142.083 37.4026 142.509 37.8777C142.935 38.3528 143.531 38.5795 144.304 38.5672C145.282 38.5521 146.211 38.1407 146.687 37.4527L146.286 37.2132C145.849 37.7965 145.212 38.0997 144.367 38.1129C143.196 38.1313 142.471 37.4437 142.533 36.3749L147.125 36.3027C147.144 36.255 147.163 36.1794 147.181 36.0751C147.312 35.4021 147.179 34.8184 146.773 34.3334C146.377 33.8483 145.802 33.6117 145.039 33.624ZM142.606 35.9112C142.749 35.37 143.046 34.9308 143.478 34.5936C143.909 34.2559 144.426 34.0873 145.006 34.0779C146.106 34.0609 146.79 34.7112 146.689 35.8465L142.606 35.9112ZM151.086 33.5286C150.261 33.5418 149.615 33.8634 149.147 34.4849L149.285 33.6608L148.776 33.6689L147.967 38.4057L148.476 38.3977L148.909 35.8871V35.8965C149.12 34.6743 149.953 33.9999 151.002 33.9834C151.969 33.9683 152.407 34.5185 152.261 35.3997L151.755 38.3462L152.274 38.3377L152.78 35.3917C152.963 34.2455 152.297 33.5097 151.086 33.5286ZM157.057 34.0013L157.14 33.5371L155.613 33.5612L155.843 32.2346L155.306 32.3848L155.104 33.5692L153.984 33.5867L153.9 34.0509L155.02 34.0335L154.497 37.1121C154.312 38.145 154.96 38.494 156.331 38.2739L156.394 37.8475C155.825 37.9037 155.437 37.8909 155.222 37.8097C155.017 37.7275 154.942 37.4928 155.006 37.1041L155.54 34.0254L157.057 34.0013ZM158.809 32.3673C159.054 32.3635 159.244 32.2001 159.281 31.9819C159.318 31.7831 159.152 31.6159 158.938 31.6193C158.694 31.623 158.503 31.7959 158.476 31.9947C158.44 32.2129 158.575 32.3711 158.809 32.3673ZM158.061 38.2465L158.871 33.5097L158.362 33.5177L157.552 38.2546L158.061 38.2465ZM164.738 34.6077C164.398 33.8101 163.574 33.3317 162.607 33.3468C161.904 33.3581 161.277 33.5758 160.724 34.0099C160.172 34.4339 159.837 35.0158 159.707 35.7549C159.588 36.4463 159.762 37.0484 160.209 37.5514C160.656 38.0543 161.241 38.3004 161.964 38.289C162.962 38.273 163.739 37.9018 164.296 37.1844L164.131 38.1507L164.64 38.1426L165.449 33.4058L164.94 33.4139L164.738 34.6077ZM164.516 35.8488C164.425 36.417 164.148 36.8845 163.686 37.2604C163.225 37.6359 162.689 37.8239 162.078 37.8338C161.467 37.8432 160.985 37.643 160.621 37.2425C160.257 36.842 160.126 36.3527 160.227 35.7841C160.328 35.1872 160.615 34.7107 161.077 34.3537C161.539 33.9966 162.065 33.8091 162.645 33.7997C163.246 33.7902 163.728 33.981 164.102 34.3626C164.486 34.7437 164.617 35.233 164.516 35.8488ZM166.732 38.1096L167.229 35.2108L167.909 31.1942L167.4 31.2022L166.709 35.2188L166.223 38.1176L166.732 38.1096Z" fill="black"/>
</g>
<defs>
<clipPath id="clip0_84_61">
<rect width="181" height="41" fill="white" transform="translate(0.743164 0.737061)"/>
</clipPath>
</defs>
</svg>
